<svg xmlns="http://www.w3.org/2000/svg" width="24" height="24" viewBox="0 0 48 48">
  <g>
    <path fill="#4285F4" d="M43.6 20.5H42V20H24v8h11.3C34.7 32.1 30.1 35 24 35c-6.1 0-11.3-4.9-11.3-11S17.9 13 24 13c2.6 0 5 .8 6.9 2.3l6.5-6.5C33.7 5.1 29.1 3 24 3 12.4 3 3 12.4 3 24s9.4 21 21 21c10.5 0 20-7.5 20-21 0-1.4-.2-2.5-.4-3.5z"/>
    <path fill="#34A853" d="M6.3 14.7l6.6 4.8C14.5 16.1 18.9 13 24 13c2.6 0 5 .8 6.9 2.3l6.5-6.5C33.7 5.1 29.1 3 24 3 16.3 3 9.3 7.6 6.3 14.7z"/>
    <path fill="#FBBC05" d="M24 44c5.8 0 10.7-1.9 14.2-5.1l-6.6-5.4C29.7 35.7 27 36.7 24 36.7c-6.1 0-11.3-4.9-11.3-11 0-1.7.4-3.3 1.1-4.7l-6.6-5.1C5.1 19.1 3 21.4 3 24c0 7.6 6.9 14 21 14z"/>
    <path fill="#EA4335" d="M43.6 20.5H42V20H24v8h11.3c-1.2 3.2-4.7 5.7-9.3 5.7-6.1 0-11.3-4.9-11.3-11 0-1.7.4-3.3 1.1-4.7l-6.6-5.1C5.1 19.1 3 21.4 3 24c0 7.6 6.9 14 21 14 6.1 0 11.3-2.1 14.2-5.1l-6.6-5.4C29.7 35.7 27 36.7 24 36.7c-6.1 0-11.3-4.9-11.3-11 0-1.7.4-3.3 1.1-4.7l-6.6-5.1C5.1 19.1 3 21.4 3 24c0 7.6 6.9 14 21 14z"/>
  </g>
</svg> 